<svg xmlns="http://www.w3.org/2000/svg" viewBox="0 0 400 400" width="400" height="400">
  <!-- Heavy outer border -->
  <rect x="0" y="0" width="400" height="400" fill="#1a1a1a"/>
  <!-- Inner white field -->
  <rect x="16" y="16" width="368" height="368" fill="#ffffff"/>
  <!-- Inner border line -->
  <rect x="26" y="26" width="348" height="348" fill="none" stroke="#1a1a1a" stroke-width="2.5"/>

  <!-- Griffin carved block (evenodd: griffin is negative space) -->
  <g transform="translate(59, 32) scale(0.2754)">
    <path d="M 247.551 106.250 C 247.175 107.487, 246.609 114.957, 246.293 122.849 L 245.717 137.199 185.971 136.513 C 141.552 136.004, 126.043 136.121, 125.517 136.972 C 124.421 138.746, 124.880 180.471, 126.543 230.111 L 127.133 247.722 119.995 248.232 C 112.052 248.801, 110.463 249.725, 111.351 253.263 C 112.027 255.956, 122.828 270.066, 125.815 272.158 C 127.593 273.403, 127.789 275.427, 128.435 299.169 L 129.133 324.833 121.817 326.018 C 114.220 327.248, 107.910 329.682, 107.281 331.624 C 106.649 333.577, 111.544 338.392, 120.772 344.894 L 129.701 351.186 129.928 377.843 C 130.054 392.504, 130.305 405.722, 130.486 407.215 C 130.994 411.391, 132.011 461.904, 132.516 508 C 132.766 530.825, 133.197 562.775, 133.473 579 C 134.286 626.730, 135.038 668.026, 135.504 690.500 C 136.363 731.983, 137.034 777.463, 137.615 833.500 C 138.113 881.691, 138.544 907.379, 138.920 911.344 C 138.964 911.808, 147.438 911.924, 157.750 911.603 C 168.063 911.282, 197.650 910.775, 223.500 910.475 C 249.350 910.176, 275.564 909.745, 281.754 909.517 C 292.452 909.124, 293.133 909.219, 295.530 911.440 C 298.250 913.961, 302.979 915.351, 304.343 914.030 C 304.806 913.582, 304.689 912.287, 304.082 911.154 C 302.981 909.096, 303.019 909.093, 331.740 908.997 C 347.558 908.944, 367.475 908.721, 376 908.502 C 395.435 908.003, 600.951 907.996, 614.500 908.494 C 620 908.697, 663.650 909.121, 711.500 909.438 C 759.350 909.755, 817.005 910.304, 839.623 910.658 L 880.746 911.302 881.242 907.401 C 881.514 905.255, 881.825 875.150, 881.932 840.500 C 882.040 805.850, 882.288 773.675, 882.484 769 C 882.680 764.325, 883.143 726.525, 883.513 685 C 883.883 643.475, 884.333 602.300, 884.513 593.500 C 886.685 487.315, 887.816 441.046, 888.522 429.500 C 888.690 426.750, 888.866 423.731, 888.914 422.791 C 888.968 421.709, 891.646 419.753, 896.201 417.467 C 906.792 412.152, 916.774 406.174, 920.264 403.055 C 925.572 398.313, 922.010 394.798, 909.998 392.927 C 905.874 392.285, 901.825 391.623, 901 391.456 C 900.175 391.289, 897.114 391.119, 894.198 391.077 L 888.896 391 889.065 372.250 L 889.233 353.500 895.304 348 C 901.824 342.092, 911.783 329.351, 913.928 324.174 C 915.019 321.541, 915.016 320.724, 913.910 319.391 C 912.815 318.072, 911.315 317.898, 905.538 318.419 C 901.667 318.768, 896.713 319.466, 894.528 319.971 C 892.344 320.476, 890.397 320.730, 890.202 320.535 C 889.699 320.032, 889.932 293.362, 890.543 281.482 C 890.826 275.992, 891.235 263.400, 891.452 253.500 C 891.768 239.057, 892.275 233.919, 894.014 227.500 C 895.206 223.100, 896.505 216.658, 896.900 213.183 C 897.663 206.463, 897.668 206.469, 892.758 208.491 C 891.155 209.150, 891.054 208.456, 891.493 199.854 C 891.756 194.709, 892.211 177.718, 892.503 162.095 L 893.035 133.691 843.767 134.500 C 816.670 134.945, 789.325 135.456, 783 135.635 C 772.403 135.936, 642.139 136.436, 376 137.198 L 270.500 137.500 264.500 125.967 C 253.667 105.145, 249.394 100.174, 247.551 106.250 M 819.917 160.379 C 819.044 161.172, 745.245 162.351, 693 162.405 C 663.025 162.437, 593.500 162.301, 538.500 162.104 C 483.500 161.907, 428.375 162.002, 416 162.315 C 403.625 162.628, 369.200 163.177, 339.500 163.534 C 309.800 163.891, 285.307 164.372, 285.072 164.603 C 284.837 164.834, 285.579 166.705, 286.722 168.761 C 287.865 170.818, 290.238 175.178, 291.996 178.450 C 293.754 181.723, 297.528 188.023, 300.384 192.450 C 303.239 196.878, 307.496 203.650, 309.844 207.500 C 312.192 211.350, 317.450 219.764, 321.529 226.198 C 328.218 236.749, 335.888 249.999, 341.259 260.281 C 343.009 263.631, 343.373 263.872, 344.454 262.393 C 345.125 261.476, 346.160 260.899, 346.753 261.112 C 347.346 261.326, 355.566 269.535, 365.018 279.357 C 378.811 293.687, 382.787 298.457, 385.153 303.513 C 390.211 314.321, 390.057 322.765, 384.434 343.114 C 382.690 349.426, 382.685 350.052, 384.323 356.836 C 387.698 370.823, 389.762 375.857, 395.394 383.849 C 402.864 394.450, 419.142 409, 423.531 409 C 425.932 409, 446.966 386.475, 446.993 383.874 C 446.997 383.530, 444.984 383.973, 442.520 384.859 C 438.399 386.341, 437.912 386.340, 436.425 384.854 C 434.937 383.366, 435.108 383.010, 438.582 380.369 C 448.595 372.756, 458 362.403, 458 358.994 C 458 358.378, 456.776 358.582, 455.017 359.491 C 449.829 362.174, 443.941 362.386, 440.177 360.025 C 436.117 357.478, 436.490 355.698, 441.246 354.925 C 445.302 354.266, 448.437 352.407, 454.061 347.326 C 458.022 343.747, 462.605 337.271, 461.768 336.434 C 461.514 336.181, 458.303 337.105, 454.631 338.487 C 450.959 339.869, 445.922 341, 443.437 341 C 439.041 341, 431.852 338.187, 430.450 335.918 C 429.263 333.999, 432.410 331.991, 438.057 331.066 C 445.624 329.825, 453.995 326.519, 459.145 322.736 L 463.500 319.537 456.197 318.790 C 447.015 317.851, 443.243 316.060, 436.624 309.493 C 431.227 304.139, 428.455 299.524, 427.366 294.080 C 426.531 289.903, 428.375 290.036, 435.063 294.637 C 441.204 298.861, 449.458 302, 454.426 302 C 461.747 302, 474 298.309, 474 296.104 C 474 295.640, 471.863 294.680, 469.250 293.972 C 465.081 292.841, 460.897 290.914, 452.438 286.230 C 448.758 284.192, 444.913 279.028, 441.334 271.316 C 436.948 261.865, 436.893 258.783, 441.177 262.661 C 443.942 265.163, 444.162 263.932, 441.976 258.180 C 438.144 248.095, 440.061 246.189, 446.500 253.682 C 451.562 259.573, 463.624 267.516, 470.904 269.753 C 474.899 270.980, 479.933 271.466, 488.500 271.449 C 499.234 271.428, 501.449 271.102, 509.500 268.358 C 515.106 266.447, 522.772 264.804, 529.827 264.003 C 541.068 262.725, 558.718 263.083, 561.212 264.639 C 561.920 265.081, 563.375 265.578, 564.445 265.745 C 565.515 265.911, 568.388 267.164, 570.831 268.529 C 575.030 270.876, 575.625 270.950, 581.757 269.882 C 591.951 268.107, 605.486 269.614, 612.660 273.324 C 622.310 278.314, 628.616 296.438, 623.033 303.139 L 621.067 305.500 621.033 302.832 C 620.983 298.777, 620.030 297.067, 616.928 295.463 C 609.960 291.860, 592.266 295.337, 584.774 301.782 C 582.316 303.897, 583.231 304.643, 589.228 305.416 C 594.907 306.148, 596.583 306.596, 607.901 310.413 C 613.497 312.299, 615.774 312.656, 617.233 311.875 C 618.741 311.068, 619.468 311.243, 620.550 312.671 C 622.561 315.324, 622.343 316.297, 619.024 319.477 C 616.039 322.336, 614.534 322.731, 599.500 324.591 C 588.277 325.980, 577.361 331.360, 571.104 338.585 C 563.816 347, 558.322 366.214, 559.407 379.493 C 560.651 394.719, 563.479 402.823, 572.804 417.886 L 577.376 425.271 586.438 424.698 C 597.783 423.980, 610.503 419.688, 630.392 409.866 C 642.675 403.801, 647.792 399.284, 657.646 385.811 C 674.913 362.202, 681.236 356.088, 699 345.827 C 704.225 342.808, 713 337.750, 718.500 334.587 C 724 331.423, 730.631 327.461, 733.235 325.783 C 737.301 323.162, 738.200 322.921, 739.592 324.076 C 740.811 325.088, 741.072 326.456, 740.644 329.581 C 740.330 331.869, 740.335 334.001, 740.654 334.320 C 741.408 335.075, 756.033 325.120, 769.149 314.924 C 774.842 310.498, 785.800 302.163, 793.500 296.402 C 806.821 286.435, 817.124 278.306, 821.500 274.308 C 822.600 273.304, 827.775 268.689, 833 264.053 C 838.225 259.417, 847.501 250.869, 853.613 245.058 L 864.727 234.491 865.569 203.496 C 866.033 186.448, 866.432 169.800, 866.456 166.500 L 866.500 160.500 850.297 160.442 C 841.385 160.410, 831.571 160.662, 828.488 161.001 C 825.405 161.341, 822.657 161.254, 822.382 160.809 C 821.855 159.956, 820.619 159.741, 819.917 160.379 M 151.265 163.750 C 150.433 165.920, 151.741 167.719, 154.669 168.432 C 158.380 169.336, 168.924 175.556, 182.186 184.662 C 188.063 188.698, 193.130 192, 193.446 192 C 193.761 192, 197.277 194.372, 201.260 197.271 C 205.242 200.170, 210.300 203.696, 212.500 205.107 C 217.042 208.021, 252.903 231.996, 263.500 239.203 C 270.667 244.078, 272.258 245.223, 289.287 257.750 C 294.708 261.738, 299.576 265, 300.107 265 C 301.427 265, 299.640 261.757, 294.045 254 C 276.253 229.331, 264.683 209.844, 259.312 195.500 C 258.488 193.300, 257.421 190.600, 256.942 189.500 C 255.318 185.779, 252.210 175.532, 250.920 169.649 C 250.214 166.431, 249.156 163.622, 248.568 163.407 C 247.981 163.192, 225.955 162.900, 199.622 162.758 C 162.050 162.556, 151.641 162.769, 151.265 163.750 M 153.606 207.728 C 153.281 208.052, 153.248 211.284, 153.533 214.909 C 153.817 218.534, 154.201 228.902, 154.386 237.949 C 154.693 252.956, 154.888 254.465, 156.611 255.172 C 157.650 255.598, 164.800 258.221, 172.500 261.001 C 180.200 263.781, 188.075 266.679, 190 267.440 C 191.925 268.201, 197.550 270.177, 202.500 271.831 C 207.450 273.485, 216.889 276.702, 223.475 278.979 C 234.812 282.899, 254.991 289.004, 261.473 290.475 L 264.446 291.150 262.473 288.933 C 260.034 286.193, 241.274 273.779, 230.500 267.776 C 219.853 261.844, 207.788 254.560, 195 246.345 C 183.716 239.095, 167.896 224.148, 160.500 213.747 C 156.527 208.160, 154.737 206.597, 153.606 207.728 M 444.500 266 C 444.840 266.550, 445.316 267, 445.559 267 C 445.802 267, 446 266.550, 446 266 C 446 265.450, 445.523 265, 444.941 265 C 444.359 265, 444.160 265.450, 444.500 266 M 583.807 277.750 C 581.824 280.059, 580.890 282.814, 581.883 283.428 C 582.819 284.006, 590.190 280.238, 591.184 278.672 C 593.072 275.701, 586.295 274.853, 583.807 277.750 M 858 291.706 C 856.075 294.261, 852.700 298.361, 850.500 300.817 C 848.300 303.273, 845.961 306.048, 845.303 306.984 C 843.359 309.749, 830.730 319.736, 819.734 327.203 C 802.359 339.003, 784.042 351, 783.400 351 C 781.993 351, 775.036 357.249, 775.538 358.062 C 776.178 359.096, 784.625 356.026, 809.500 345.718 C 819.400 341.615, 830.875 337.132, 835 335.757 C 847.545 331.573, 859.703 328, 861.396 328 C 862.474 328, 863.007 327.098, 863.021 325.250 C 863.032 323.738, 863.319 314.512, 863.658 304.750 C 864.358 284.586, 863.996 283.750, 858 291.706 M 533 295.288 C 529.558 297.020, 528.973 302.380, 532.047 304.025 C 535.267 305.748, 540.713 304.368, 542.708 301.324 C 544.354 298.811, 544.325 298.677, 541.644 296.370 C 538.542 293.702, 536.627 293.462, 533 295.288 M 155.831 296.502 C 155.343 296.990, 155.977 322.208, 156.492 322.791 C 156.634 322.952, 167.216 323.300, 180.009 323.566 C 192.802 323.831, 203.593 324.248, 203.989 324.493 C 205.223 325.256, 227.948 327.846, 239.899 328.587 C 253.981 329.459, 254.111 328.082, 240.240 324.984 C 218.612 320.153, 189.972 311.476, 182.106 307.372 C 180.673 306.624, 179.115 306.010, 178.645 306.006 C 178.174 306.003, 173.159 303.750, 167.500 301 C 156.643 295.724, 156.619 295.715, 155.831 296.502 M 533.620 298.548 C 532.837 300.589, 533.658 302, 535.629 302 C 536.610 302, 537.027 301.240, 536.820 299.828 C 536.423 297.136, 534.463 296.351, 533.620 298.548 M 157.662 361.887 C 157.505 362.224, 157.474 364.525, 157.594 367 C 157.714 369.475, 157.854 378.137, 157.906 386.250 C 158.014 403.143, 157.621 402.604, 167.212 399.030 C 174.819 396.196, 193.291 391.387, 209.596 387.997 C 217.348 386.384, 227.698 383.744, 232.596 382.130 C 237.493 380.515, 244.006 378.487, 247.068 377.622 C 255.614 375.209, 260.392 372.992, 259.332 371.932 C 258.819 371.419, 246.948 370.824, 232.950 370.609 C 203.398 370.154, 181.872 367.977, 167.725 364.013 C 162.348 362.506, 157.820 361.549, 157.662 361.887 M 856 370.530 C 848.474 374.301, 812.585 384.883, 802 386.451 C 795.085 387.475, 778.835 391.048, 775.683 392.236 C 770.153 394.321, 775.379 395.068, 791.500 394.496 C 800.300 394.184, 808.850 393.730, 810.500 393.487 C 817.029 392.527, 836.150 390.964, 848 390.422 C 854.875 390.108, 861.014 389.692, 861.642 389.498 C 862.392 389.267, 862.832 385.515, 862.923 378.573 C 863.079 366.729, 863.231 366.905, 856 370.530 M 265.500 411.683 C 261.864 412.504, 236.674 419.209, 226.500 422.064 C 211.969 426.141, 196.048 428.168, 179.117 428.096 C 171.077 428.062, 163.375 427.914, 162 427.767 L 159.500 427.500 159.796 455 C 159.959 470.125, 160.283 485.650, 160.516 489.500 C 160.749 493.350, 161.179 509.325, 161.470 525 C 162.908 602.240, 163.998 644.269, 164.579 644.889 C 164.780 645.102, 165.404 644.068, 165.966 642.589 C 166.702 640.653, 168.826 639.040, 173.556 636.827 C 180.479 633.588, 181.318 633.546, 198.376 635.590 C 203.596 636.216, 206.071 635.356, 205.255 633.199 C 204.297 630.669, 202.464 629.092, 198.607 627.480 C 196.334 626.530, 195.033 625.254, 194.822 623.767 C 194.378 620.640, 189.841 620.193, 186.358 622.933 C 184.913 624.070, 183.046 625, 182.210 625 C 179.883 625, 173.993 629.887, 172.921 632.707 C 172.131 634.784, 171.711 635.005, 170.483 633.986 C 168.268 632.148, 168.678 628.341, 171.750 622.221 C 177.664 610.441, 186.897 604.858, 197.772 606.489 C 206.379 607.779, 210.983 611.686, 215.741 621.734 C 217.124 624.655, 219.531 627.954, 221.089 629.064 C 224.774 631.688, 234.466 635.003, 238.407 634.988 C 247.175 634.954, 262.945 628.042, 273.292 619.696 C 288.320 607.574, 305.251 589.809, 314.500 576.458 C 320.415 567.920, 323.835 564.185, 329.716 559.840 C 335.429 555.620, 336.113 553.629, 333.317 549.361 C 330.732 545.415, 329.898 530.401, 331.687 520 C 334.485 503.728, 334.706 501.937, 333.973 501.483 C 333.122 500.958, 329.673 508.631, 327.002 516.993 C 323.836 526.904, 320.136 532.906, 311.906 541.478 C 304.067 549.643, 296.208 554.580, 292.276 553.809 C 285.560 552.493, 287.512 523.311, 295.441 506.500 C 296.738 503.750, 298.122 500.375, 298.517 499 C 298.912 497.625, 300.289 494.475, 301.577 492 C 309.860 476.085, 312.337 468.944, 310.061 467.538 C 309.545 467.219, 304.488 472.930, 298.823 480.229 C 285.890 496.894, 278.433 504.796, 269.517 511.287 C 260.759 517.663, 249.047 521.968, 240.405 521.987 C 229.166 522.011, 228.465 517.312, 237.128 500.034 C 242.366 489.589, 246.499 484.912, 274.250 458.033 C 283.767 448.815, 286.693 445, 284.247 445 C 283.833 445, 281.245 446.610, 278.497 448.579 C 273.694 452.019, 265.515 456.970, 256 462.198 C 239.983 470.999, 218.304 475.258, 200.773 473.049 C 191.249 471.849, 182.016 468.780, 179.472 465.969 C 178.003 464.346, 177.997 463.907, 179.401 461.191 C 183.353 453.549, 194.755 446.982, 225 434.929 C 244.859 427.015, 271.084 414.295, 271.756 412.250 C 272.169 410.994, 269.590 410.760, 265.500 411.683 M 848.500 430.231 C 836.369 432.426, 804.047 433.166, 781.750 431.758 C 772.329 431.164, 770 431.278, 770 432.332 C 770 433.641, 780.471 437.401, 792.572 440.438 C 805.783 443.754, 834.958 454.535, 853.394 462.913 C 857.186 464.636, 860.536 465.797, 860.840 465.493 C 861.144 465.189, 861.544 456.629, 861.729 446.470 C 861.994 431.893, 861.794 428.025, 860.782 428.120 C 860.077 428.186, 854.550 429.136, 848.500 430.231 M 736 459.932 C 736 461.091, 739.288 464.794, 744.214 469.182 C 748.731 473.207, 758.784 482.800, 766.554 490.500 C 787.546 511.304, 795.195 521.194, 800.195 534 C 805.675 548.034, 805.899 555, 800.869 555 C 791.925 555, 771.732 544.877, 754.376 531.692 C 743.558 523.473, 740.724 520.594, 730.563 507.500 C 717.047 490.081, 714 486.845, 714 489.909 C 714 490.931, 728.998 512.129, 732.459 516 C 738.312 522.545, 753.794 548.761, 757.306 558.073 C 759.479 563.837, 761.931 575.413, 761.470 577.738 C 760.103 584.632, 759.916 585, 757.777 585 C 756.575 585, 751.482 583, 746.458 580.556 C 736.577 575.750, 725.862 566.723, 718.262 556.803 C 713.794 550.970, 713.107 549.799, 702.251 529.500 C 690.649 507.806, 689.968 506.631, 687.778 504.500 L 685.722 502.500 686.496 504.500 C 686.922 505.600, 688.274 510.100, 689.500 514.500 C 690.727 518.900, 692.868 526.325, 694.259 531 C 695.650 535.675, 697.142 541.075, 697.576 543 C 698.009 544.925, 698.523 547.175, 698.717 548 C 699.717 552.241, 699.895 567.381, 699.020 573.740 C 697.832 582.364, 693.220 594.808, 690.712 596.152 C 687.926 597.646, 686.091 596.559, 677.364 588.248 C 672.276 583.402, 667.703 577.878, 665.155 573.500 C 660.874 566.143, 655 552.724, 655 550.300 C 655 548.423, 651.907 539, 651.290 539 C 651.027 539, 651.083 544.513, 651.416 551.250 C 652.140 565.889, 650.459 578.040, 646.573 586.254 C 642.519 594.824, 640.329 594.746, 632.715 585.761 C 626.099 577.953, 622.392 569.218, 619.982 555.750 C 619.317 552.038, 618.436 549, 618.023 549 C 617.611 549, 616.713 551.813, 616.027 555.250 C 614.306 563.887, 611.427 571.562, 607.824 577.122 C 602.315 585.624, 600.531 584.661, 589.988 567.500 C 585.933 560.900, 582.477 555.313, 582.308 555.083 C 581.305 553.726, 580.444 557.426, 579.351 567.791 C 577.276 587.465, 577.403 588.590, 582.461 595.500 C 603.181 623.802, 612.369 641.613, 619.461 667.226 C 621.483 674.527, 623.543 681.506, 624.040 682.735 C 624.537 683.965, 630.118 692.065, 636.441 700.735 C 642.765 709.406, 654.179 725.275, 661.806 736 C 669.433 746.725, 678.784 759.654, 682.587 764.732 C 704.122 793.490, 710.543 804.537, 708.626 809.533 C 707.258 813.097, 695.945 809.265, 685.584 801.729 C 678.259 796.401, 678.260 796.401, 660.527 770 C 651.530 756.605, 641.862 743.804, 641.225 744.442 C 640.642 745.024, 650.651 762.601, 661.104 779.352 C 679.210 808.368, 685.667 819.164, 690.593 828.663 C 698.877 844.637, 702.536 859.898, 699.094 864.119 C 697.527 866.040, 697.391 866.017, 691.135 862.787 C 687.634 860.979, 681.813 857.025, 678.198 854 C 672.288 849.054, 670.662 846.783, 662.063 831.459 C 645.993 802.823, 641.454 794.649, 639.562 790.937 C 635.405 782.779, 632.250 781.480, 635.439 789.239 C 636.403 791.583, 638.899 797.775, 640.987 803 C 643.075 808.225, 648.012 819.025, 651.958 827 C 662.297 847.898, 671.936 872.566, 671.985 878.250 C 671.993 879.212, 672.112 880.029, 672.250 880.063 C 672.388 880.098, 688.700 880.316, 708.500 880.547 C 751.283 881.046, 794.906 881.787, 830.125 882.612 C 847.347 883.016, 855.960 882.874, 856.390 882.178 C 857.455 880.455, 858.022 843.221, 858.495 744 C 859.082 620.969, 859.791 545.950, 860.633 517.874 L 861.311 495.247 845.906 495.374 C 836.381 495.452, 828.400 495.007, 825 494.210 C 817.533 492.457, 808.529 490.072, 802.500 488.249 C 797.523 486.745, 777.669 477.723, 771 473.936 C 761.590 468.592, 739.595 458, 737.908 458 C 736.689 458, 736 458.698, 736 459.932 M 543.500 479 C 543.160 479.550, 543.359 480, 543.941 480 C 544.523 480, 545 479.550, 545 479 C 545 478.450, 544.802 478, 544.559 478 C 544.316 478, 543.840 478.450, 543.500 479 M 462 499.559 C 462 500.416, 462.450 500.840, 463 500.500 C 463.550 500.160, 464 499.459, 464 498.941 C 464 498.423, 463.550 498, 463 498 C 462.450 498, 462 498.702, 462 499.559 M 406.378 579.456 C 406.024 580.381, 402.854 582.956, 399.336 585.178 C 392.240 589.659, 390.176 592.722, 389.307 600.054 C 388.840 604, 388.345 605, 386.861 605 C 385.837 605, 384.993 605.337, 384.984 605.750 C 384.975 606.163, 383.620 608.030, 381.972 609.899 C 380.324 611.769, 377.579 615.740, 375.872 618.723 C 374.165 621.707, 371.712 624.630, 370.420 625.218 C 368.384 626.146, 367.682 625.871, 365.135 623.144 C 361.803 619.577, 360.381 619.223, 359.577 621.757 C 359.270 622.724, 357.039 625.581, 354.619 628.106 C 349.218 633.743, 345.043 635.240, 324.500 638.902 C 308.983 641.669, 292.688 646.534, 285.496 650.547 C 277.784 654.850, 273.670 659.266, 271.631 665.428 C 269.448 672.024, 269.517 672.702, 273.072 679.567 C 275.680 684.604, 276.087 686.356, 275.764 691.173 C 274.977 702.914, 266.987 710.694, 254.924 711.465 C 245.825 712.046, 235.781 707.620, 237.287 703.693 C 237.775 702.424, 238.655 702.485, 243.664 704.137 C 250.728 706.468, 254.074 705.889, 257.570 701.734 C 259.786 699.100, 260.096 698, 259.561 694.653 C 258.688 689.196, 258.218 688.703, 254.462 689.312 C 250.026 690.032, 249.603 689.261, 252.528 685.784 C 254.053 683.972, 254.986 681.631, 254.963 679.673 C 254.933 677.025, 254.193 676.035, 250.487 673.687 C 248.045 672.140, 244.577 670.452, 242.780 669.937 C 238.293 668.650, 228.320 668.759, 225.772 670.122 C 223.214 671.491, 216.006 678.524, 215.985 679.672 C 215.976 680.127, 215.571 681.130, 215.083 681.900 C 214.352 683.055, 213.719 682.924, 211.463 681.150 C 208.068 678.479, 206.048 678.449, 201.715 681.006 C 197.600 683.434, 196 686.650, 196 692.496 C 196 696.289, 196.450 697.241, 199.250 699.371 C 201.037 700.731, 203.742 702.154, 205.259 702.533 C 208.832 703.425, 209.398 704.459, 207.404 706.453 C 205.708 708.149, 204.468 707.982, 198.087 705.195 C 196.114 704.333, 194.144 703.718, 193.709 703.828 C 191.773 704.316, 188.676 701.499, 186.937 697.669 C 182.741 688.429, 185.810 675.948, 194.292 667.757 C 196.717 665.416, 198.957 662.769, 199.270 661.876 C 199.584 660.982, 201.503 659.941, 203.543 659.558 C 207.421 658.830, 211 657.026, 211 655.798 C 211 655.402, 208.812 654.428, 206.139 653.634 C 203.465 652.840, 200.359 651.617, 199.237 650.916 C 197.526 649.848, 196.760 649.927, 194.502 651.407 C 192.657 652.616, 190.183 653.106, 186.654 652.962 C 178.617 652.634, 178.095 652.795, 175.989 656.250 C 173.574 660.211, 173.440 665.243, 175.650 668.984 C 179.406 675.342, 172.795 676.640, 168.884 670.312 C 167.540 668.137, 166.395 667.205, 165.800 667.800 C 164.929 668.671, 164.681 704.393, 165.485 713.168 C 165.670 715.185, 166.107 753.565, 166.457 798.458 C 166.807 843.350, 167.343 880.730, 167.648 881.524 C 168.122 882.761, 172.956 882.873, 201.351 882.306 C 219.583 881.942, 235.790 881.662, 237.367 881.684 C 240.215 881.725, 240.229 881.694, 239.527 877.112 C 239.138 874.576, 238.663 871.380, 238.472 870.011 C 237.983 866.514, 239.896 858.246, 241.586 856.557 C 242.364 855.779, 243 854.845, 243 854.481 C 243 854.117, 245.292 851.610, 248.093 848.911 C 251.982 845.162, 254.523 843.645, 258.843 842.494 C 275.562 838.036, 275.678 837.788, 263.556 832.462 C 253.653 828.110, 247.667 830.724, 243.904 841.043 C 242.710 844.319, 241.357 847, 240.898 847 C 240.439 847, 239.446 845.821, 238.691 844.381 C 237.508 842.122, 237.552 840.894, 239.011 835.461 C 240.994 828.071, 243.213 824.324, 247.941 820.375 C 250.949 817.862, 252.345 817.456, 259.021 817.152 C 266.182 816.825, 267.122 817.036, 274.044 820.522 L 281.427 824.240 288.464 823.003 C 298.495 821.239, 308.759 814.191, 322.977 799.301 C 329.040 792.953, 334 787.385, 334 786.929 C 334 786.473, 335.290 784.165, 336.867 781.800 C 338.443 779.435, 341.135 774.811, 342.849 771.524 L 345.965 765.547 343.334 763.449 C 340.746 761.385, 340.695 761.104, 340.217 746.236 C 339.925 737.144, 340.158 729.403, 340.800 726.810 C 341.387 724.440, 342.166 718.450, 342.530 713.500 C 343.207 704.320, 345.342 693.183, 347.002 690.173 C 347.510 689.253, 350.197 683.100, 352.975 676.500 C 359.257 661.570, 366.466 649.967, 380.863 631.612 C 387.427 623.244, 405.892 604.305, 411.907 599.771 L 415.315 597.203 413.221 591.851 C 412.070 588.908, 410.845 585.069, 410.499 583.319 C 409.700 579.268, 407.310 577.028, 406.378 579.456 M 605 686 C 605 686.550, 605.477 687, 606.059 687 C 606.641 687, 606.840 686.550, 606.500 686 C 606.160 685.450, 605.684 685, 605.441 685 C 605.198 685, 605 685.450, 605 686 M 473.250 690.250 C 472.703 690.938, 471.323 693.638, 470.184 696.250 C 468.677 699.705, 467.552 701, 466.056 701 C 464.925 701, 464 700.513, 464 699.917 C 464 699.321, 463.523 698.992, 462.941 699.186 C 461.996 699.501, 457.016 710.427, 457.005 712.209 C 457.002 712.599, 455.763 714.967, 454.250 717.471 C 449.876 724.713, 446.379 724.488, 443.289 716.765 C 442.442 714.649, 441.259 713.080, 440.660 713.280 C 440.061 713.480, 437.894 716.761, 435.843 720.571 C 430.387 730.710, 429.835 731.268, 426.502 730.001 C 424.288 729.159, 423.360 729.269, 421.957 730.539 C 419.658 732.620, 414.983 745.871, 413.504 754.500 C 412.208 762.061, 409.401 766.582, 403.898 769.968 C 401.070 771.708, 396.179 773.933, 393.029 774.914 C 389.879 775.894, 385.240 778.115, 382.721 779.848 C 380.201 781.582, 377.355 783, 376.397 783 C 374.384 783, 359.210 798.506, 356.395 803.439 C 355.353 805.266, 353.204 808.866, 351.621 811.439 C 348.326 816.792, 347.251 823.633, 349.300 826.208 C 350.527 827.750, 353.875 828.857, 362.402 830.541 C 369.174 831.879, 373.560 841.014, 373.424 853.500 C 373.348 860.396, 370.365 869, 368.049 869 C 366.761 869, 366.364 865.249, 367.105 860.068 C 368.662 849.171, 360.999 841.535, 356.567 849.567 C 354.106 854.026, 352 854.028, 352 849.571 C 352 843.774, 349.061 842.358, 335.500 841.620 C 328.676 841.248, 325.101 842.531, 318.480 847.728 C 311.921 852.876, 307.362 860.940, 309.136 864.255 C 309.929 865.736, 309.749 866.474, 308.329 867.550 C 307.323 868.313, 306.163 868.951, 305.750 868.968 C 305.337 868.986, 305 869.943, 305 871.096 C 305 872.248, 304.236 874.485, 303.303 876.065 C 302.369 877.645, 301.926 879.259, 302.318 879.651 C 302.710 880.043, 307.411 880.339, 312.765 880.309 C 330.979 880.207, 488.479 880.077, 493 880.161 C 495.475 880.207, 504.861 880.189, 513.857 880.122 C 528.085 880.016, 530.138 879.801, 529.628 878.473 C 528.254 874.892, 524.953 856.162, 524.543 849.615 C 523.426 831.806, 523.011 821.766, 522.396 797.728 C 521.804 774.611, 521.231 769.199, 519.645 771.765 C 519.133 772.593, 518.314 783.910, 517.456 802 C 516.253 827.372, 513.195 838.181, 509.978 828.435 C 509.331 826.474, 509.064 823.436, 509.384 821.685 C 509.705 819.933, 509.569 817.871, 509.083 817.102 C 508.502 816.183, 507.953 818.411, 507.481 823.602 C 507.087 827.946, 506.100 833.075, 505.287 835 C 503.861 838.378, 503.779 838.421, 502.924 836.214 C 502.436 834.956, 502.088 831.678, 502.150 828.929 C 502.212 826.179, 502.019 823.685, 501.721 823.387 C 501.213 822.880, 500.684 825.149, 497.906 839.750 C 496.769 845.725, 494.486 850.418, 493.126 849.578 C 492.693 849.310, 492.423 847.080, 492.525 844.621 C 492.851 836.808, 491.411 837.652, 489.211 846.565 C 487.031 855.396, 482.655 862.509, 477.806 865.104 C 474.698 866.767, 471.417 864.795, 469.963 860.387 C 468.536 856.063, 469.163 824.197, 470.857 815 C 471.875 809.468, 472.217 806.694, 474.012 789.384 C 474.550 784.200, 476.089 773.105, 477.432 764.729 C 478.775 756.353, 480.150 746.575, 480.487 743 C 480.825 739.425, 481.731 732, 482.503 726.500 C 483.274 721, 484.430 712.235, 485.071 707.021 C 485.713 701.808, 486.451 696.987, 486.712 696.308 C 487.247 694.914, 478.519 689, 475.927 689 C 475.002 689, 473.797 689.563, 473.250 690.250 M 494 693 C 494 693.550, 494.450 694, 495 694 C 495.550 694, 496 693.550, 496 693 C 496 692.450, 495.550 692, 495 692 C 494.450 692, 494 692.450, 494 693 M 555 796.371 C 555 800.497, 557.980 829.430, 559.751 842.500 C 560.752 849.888, 560.395 852.089, 558.323 851.294 C 556.987 850.781, 556.871 851.450, 557.492 856.099 C 558.305 862.185, 558.278 861.832, 558.118 864.403 C 558.007 866.201, 557.897 866.188, 556.148 864.171 C 553.635 861.273, 553 862.294, 553 869.232 C 553 872.477, 552.514 876.040, 551.919 877.151 C 551.324 878.262, 551.087 879.421, 551.392 879.725 C 552.169 880.503, 579.842 880.492, 580.620 879.714 C 580.970 879.363, 580.020 876.021, 578.508 872.288 C 573.116 858.974, 572.197 856.382, 569.544 847 C 568.066 841.775, 565.994 834.575, 564.938 831 C 563.881 827.425, 562.791 822.649, 562.514 820.386 C 561.190 809.564, 556.865 792, 555.525 792 C 555.236 792, 555 793.967, 555 796.371 M 262.441 861.468 C 261.374 862.276, 259.705 862.951, 258.734 862.968 C 257.717 862.986, 256.259 864.486, 255.299 866.500 C 254.381 868.425, 253.321 870, 252.945 870 C 252.568 870, 251.685 872.055, 250.982 874.566 C 249.342 880.421, 250.731 882.245, 255.993 881.149 C 259.267 880.466, 259.530 880.116, 260.180 875.574 C 260.561 872.908, 261.352 870.248, 261.937 869.663 C 262.521 869.079, 263 867.927, 263 867.105 C 263 866.282, 264.209 864.347, 265.687 862.805 C 268.151 860.233, 268.209 860, 266.378 860 C 265.280 860, 263.509 860.661, 262.441 861.468 M 286.240 864 C 281.788 866.708, 275.939 874.903, 276.249 878 C 276.476 880.259, 276.933 880.500, 281 880.500 L 285.500 880.500 286.641 874.720 C 287.269 871.541, 288.342 867.589, 289.026 865.938 C 290.642 862.035, 290.096 861.655, 286.240 864 M 640.717 869.750 C 641.132 871.263, 641.401 873.919, 641.314 875.654 C 641.153 878.862, 642.645 879.950, 647.250 879.986 C 649.861 880.007, 649.397 878.094, 645.378 872.259 C 641.401 866.483, 639.546 865.485, 640.717 869.750 M 1023.310 1013.500 C 1023.315 1016.800, 1023.502 1018.029, 1023.725 1016.232 C 1023.947 1014.435, 1023.943 1011.735, 1023.715 1010.232 C 1023.486 1008.729, 1023.304 1010.200, 1023.310 1013.500 M 1023.079 1022.583 C 1023.127 1023.748, 1023.364 1023.985, 1023.683 1023.188 C 1023.972 1022.466, 1023.936 1021.603, 1023.604 1021.271 C 1023.272 1020.939, 1023.036 1021.529, 1023.079 1022.583" fill="#1a1a1a" fill-rule="evenodd"/>
  </g>

  <!-- Black text bar (no divider line) -->
  <rect x="26" y="318" width="348" height="56" fill="#1a1a1a"/>

  <!-- Tracked NSG letters reversed out -->
    <g transform="translate(106.74, 327.26) scale(0.051630)">
      <path d="M251 4L144 2L59 4Q37 4 37-12L37-12Q37-21 50-23.50Q63-26 82-39Q101-52 109-81.50Q117-111 126-274Q135-437 135-511Q135-585 111-627.50Q87-670 33-676L33-676Q20-677 20-691L20-691Q20-697 27-702.50Q34-708 45-708L45-708L83-707L132-709Q141-709 153-703.50Q165-698 167-693.50Q169-689 178-678.50Q187-668 202-651Q217-634 229-618L229-618Q365-441 593-191L593-191Q599-184 607.50-175Q616-166 619.50-161.50Q623-157 627-153L627-153Q634-146 638-146L638-146Q648-146 648-208L648-208L648-325L646-530L646-537Q646-629 614-654L614-654Q602-663 594-665.50Q586-668 571-671L571-671Q530-679 530-693.50Q530-708 549-708L549-708L644-707Q644-707 734-709L734-709Q751-709 757.50-705.50Q764-702 764-695Q764-688 758-684L758-684Q750-679 729-672L729-672Q696-654 696-559L696-559L696-521L685-26L685-6Q685 17 671 17L671 17Q662 17 655 10L655 10Q323-375 258.50-447.50Q194-520 187-520L187-520Q177-520 177-438.50Q177-357 173-247.50Q169-138 169-128L169-128Q169-83 184.50-59.50Q200-36 218-33Q236-30 251.50-26.50Q267-23 267-12.50Q267-2 263.50 1Q260 4 251 4L251 4Z" transform="translate(-20.00, 709.00)" fill="#ffffff"/>
    </g>
    <g transform="translate(187.61, 327.03) scale(0.051630)">
      <path d="M455-689L455-689L478-697Q491-697 493-689L493-689Q514-568 514-546.50Q514-525 500-525L500-525Q491-525 482.50-546.50Q474-568 462.50-586Q451-604 446-609Q441-614 420-633L420-633Q366-681 296.50-681Q227-681 185-651Q143-621 143-573Q143-525 167.50-496Q192-467 233-451Q274-435 319-421L319-421Q440-383 498-322L498-322Q538-279 538-215L538-215Q538-110 471-48.50Q404 13 305 13L305 13Q236 13 194 5.50Q152-2 108-25L108-25Q95-33 77-103Q59-173 59-190.50Q59-208 72.50-208Q86-208 89-198L89-198Q126-109 176-72L176-72Q230-31 306.50-31Q383-31 428.50-70.50Q474-110 474-174L474-174Q474-221 443-252.50Q412-284 372-298L372-298Q223-348 170-379L170-379Q79-433 79-524Q79-615 143.50-668.50Q208-722 311-722L311-722Q349-722 401.50-705.50Q454-689 455-689Z" transform="translate(-59.00, 722.00)" fill="#ffffff"/>
    </g>
    <g transform="translate(254.80, 327.00) scale(0.051630)">
      <path d="M567-370L678-365L758-366L773-366Q789-366 789-357L789-357Q789-350 763.50-339Q738-328 735-311L735-311Q728-268 728-218.50Q728-169 729-146Q730-123 730.50-113.50Q731-104 732-97Q733-90 733-86Q733-82 725.50-79.50Q718-77 701-72.50Q684-68 670-59.50Q656-51 649-47Q642-43 630.50-37Q619-31 607-25Q595-19 580-12.50Q565-6 549-1Q533 4 516 8L516 8Q478 17 444 17L444 17Q335 17 254.50-12.50Q174-42 130-92L130-92Q44-191 44-329L44-329Q44-438 87.50-525Q131-612 221-665.50Q311-719 435-719L435-719Q554-719 641-674L641-674Q661-663 671.50-655.50Q682-648 684.50-648Q687-648 697.50-655.50Q708-663 712-663L712-663Q727-663 727.50-638.50Q728-614 731.50-582Q735-550 738-529Q741-508 741-504L741-504Q741-487 729-487Q717-487 712-499L712-499Q677-575 595-627.50Q513-680 426-680L426-680Q301-680 219.50-601.50Q138-523 138-384L138-384Q138-292 172-211Q206-130 275.50-77Q345-24 428.50-24Q512-24 574.50-59Q637-94 644-139L644-139Q647-163 647-265L647-265Q647-304 632.50-318.50Q618-333 587-336.50Q556-340 552.50-346.50Q549-353 549-359L549-359Q549-370 567-370L567-370Z" transform="translate(-44.00, 719.00)" fill="#ffffff"/>
    </g>

</svg>
